<svg xmlns="http://www.w3.org/2000/svg" viewBox="0 0 1440 320">
    <path fill="#273036" fill-opacity="1"
        d="M0,0L24,53.3C48,107,96,213,144,250.7C192,288,240,256,288,245.3C336,235,384,245,432,256C480,267,528,277,576,240C624,203,672,117,720,90.7C768,64,816,96,864,90.7C912,85,960,43,1008,74.7C1056,107,1104,213,1152,250.7C1200,288,1248,256,1296,218.7C1344,181,1392,139,1416,117.3L1440,96L1440,320L1416,320C1392,320,1344,320,1296,320C1248,320,1200,320,1152,320C1104,320,1056,320,1008,320C960,320,912,320,864,320C816,320,768,320,720,320C672,320,624,320,576,320C528,320,480,320,432,320C384,320,336,320,288,320C240,320,192,320,144,320C96,320,48,320,24,320L0,320Z"></path>
</svg>