<?xml version="1.0" standalone="no"?>
<!DOCTYPE svg PUBLIC "-//W3C//DTD SVG 20010904//EN"
 "http://www.w3.org/TR/2001/REC-SVG-20010904/DTD/svg10.dtd">
<svg version="1.0" xmlns="http://www.w3.org/2000/svg"
 width="223.000000pt" height="226.000000pt" viewBox="0 0 223.000000 226.000000"
 preserveAspectRatio="xMidYMid meet">

<g transform="translate(0.000000,226.000000) scale(0.100000,-0.100000)"
fill="#000000" stroke="none">
<path d="M282 2244 c-15 -10 -22 -25 -22 -49 0 -40 4 -43 175 -141 l120 -69
-110 -6 c-158 -10 -240 -44 -329 -138 -54 -58 -91 -132 -106 -211 -13 -70 -13
-950 0 -1020 31 -161 154 -294 314 -336 28 -8 63 -14 77 -14 24 0 27 -4 32
-51 17 -140 146 -230 285 -199 98 22 182 128 182 229 0 21 5 21 214 21 l213 0
6 -51 c17 -140 146 -230 285 -199 98 22 182 128 182 229 0 16 6 21 29 21 41 0
142 33 194 64 98 57 177 177 196 297 14 81 14 913 1 993 -19 120 -92 233 -188
295 -70 45 -126 61 -230 69 l-93 7 123 71 c91 53 125 79 133 98 11 32 0 54
-37 75 -25 14 -35 10 -251 -117 l-226 -132 -317 0 -318 0 -242 140 c-133 77
-248 140 -256 140 -7 0 -24 -7 -36 -16z m1367 -485 c160 -25 296 -142 345
-296 15 -44 17 -94 14 -365 l-3 -313 -34 -67 c-61 -123 -182 -214 -314 -239
-36 -6 -246 -9 -579 -7 -517 3 -524 3 -579 26 -123 49 -212 139 -261 262 -21
51 -22 75 -26 321 -2 163 0 288 7 324 33 177 181 326 351 354 79 13 1001 13
1079 0z m-879 -1530 c0 -43 -56 -99 -100 -99 -61 0 -109 43 -110 98 l0 32 105
0 105 0 0 -31z m900 0 c0 -43 -56 -99 -100 -99 -61 0 -109 43 -110 98 l0 32
105 0 105 0 0 -31z"/>
<path d="M559 1667 c-103 -29 -181 -96 -228 -197 -26 -54 -26 -58 -29 -328 -3
-229 -1 -282 13 -329 35 -121 117 -203 238 -238 47 -14 123 -15 583 -13 l529
3 56 26 c109 52 176 137 199 254 8 39 10 145 8 310 -3 231 -5 254 -26 307 -30
75 -101 149 -177 185 l-60 28 -530 2 c-400 2 -541 -1 -576 -10z m199 -355 c74
-48 69 -177 -10 -218 -89 -46 -188 12 -188 111 0 104 111 164 198 107z m853 0
c80 -45 78 -169 -3 -217 -125 -73 -255 84 -162 195 42 49 104 57 165 22z"/>
</g>
</svg>
